<svg width="591" height="718" viewBox="0 0 591 718" fill="none" xmlns="http://www.w3.org/2000/svg">
<g clip-path="url(#clip0_15:12)">
<path d="M1.52588e-05 0.0141296V716.741H45.9902V5.51804L43.1953 0.0141296H1.52588e-05Z" fill="#07290D"/>
<path d="M544.844 0.0141296C544.419 1.17349 543.902 2.28743 543.244 3.24265V717.854H590.045V0.0141296H544.844Z" fill="#07290D"/>
<path d="M235.862 420.179H36.9834V479.873H235.862V420.179Z" fill="#07290D"/>
<path d="M41.6445 0.0141296L41.6309 97.8989L356.904 717.854H408.24L408.734 717.327L44.9277 0.0141296H41.6445Z" fill="#07290D"/>
<path d="M545.264 0.500458L293.434 488.776L319.033 542.004L546.244 94.1665L547.674 0.500458H545.264Z" fill="#07290D" stroke="#07290D" stroke-width="1.00091"/>
<path d="M560.726 14.8357H540.615V93.0399H560.726V14.8357Z" fill="#07290D"/>
</g>
<defs>
<clipPath id="clip0_15:12">
<rect width="590.045" height="717.854" fill="white"/>
</clipPath>
</defs>
</svg>
