<?xml version="1.0" encoding="UTF-8" standalone="no"?>
<svg
   xmlns:dc="http://purl.org/dc/elements/1.1/"
   xmlns:cc="http://creativecommons.org/ns#"
   xmlns:rdf="http://www.w3.org/1999/02/22-rdf-syntax-ns#"
   xmlns:svg="http://www.w3.org/2000/svg"
   xmlns="http://www.w3.org/2000/svg"
   id="svg8"
   version="1.1"
   viewBox="0 0 6.5112696 6.2235599"
   height="23.522116"
   width="24.609524">
  <defs
     id="defs2" />
  <metadata
     id="metadata5">
    <rdf:RDF>
      <cc:Work
         rdf:about="">
        <dc:format>image/svg+xml</dc:format>
        <dc:type
           rdf:resource="http://purl.org/dc/dcmitype/StillImage" />
        <dc:title></dc:title>
      </cc:Work>
    </rdf:RDF>
  </metadata>
  <g
     transform="translate(95.174728,-147.68212)"
     id="layer1">
    <path
       style="stroke-width:0.01550293"
       d="m -95.092158,149.70637 h 1.39543 v 4.19931 h -1.39543 z m 0.70705,-2.02425 c -0.4776,0 -0.78962,0.31355 -0.78962,0.72509 0,0.40308 0.30289,0.72574 0.77136,0.72574 h 0.009 c 0.48673,0 0.78984,-0.32268 0.78984,-0.72574 -0.009,-0.41154 -0.3031,-0.72509 -0.78048,-0.72509 z m 4.11456,1.92561 c -0.74072,0 -1.07256,0.40741 -1.25768,0.69313 v -0.59449 h -1.39585 c 0.0185,0.39395 0,4.19931 0,4.19931 h 1.39585 v -2.34519 c 0,-0.1256 0.009,-0.25074 0.0459,-0.34072 0.10106,-0.25075 0.33072,-0.51041 0.71596,-0.51041 0.50542,0 0.70727,0.38527 0.70727,0.94953 v 2.24678 h 1.39564 v -2.40797 c 0,-1.28982 -0.68836,-1.88997 -1.60705,-1.88997 z"
       id="path1064" />
  </g>
  <style
     type="text/css"
     id="style815"><![CDATA[
	.st0{fill-rule:evenodd;clip-rule:evenodd;}
]]></style>
</svg>
